<svg xmlns="http://www.w3.org/2000/svg" width="24" height="24" viewBox="0 0 24 24"><defs><style>.a{fill:#262626;}.b{fill:#fff;fill-rule:evenodd;}</style></defs><circle class="a" cx="12" cy="12" r="12"/><path class="b" d="M17.6,8.3l-2.1,3.6a1.081,1.081,0,0,1-1.6.4h0l-.5-.3.6-1.1h0a.54.54,0,0,0,.8-.2h0l1.5-2.6a.524.524,0,0,0-.2-.8h0L14,6.1a.54.54,0,0,0-.8.2h0L11.6,9a.54.54,0,0,0,.2.8h0l-.6,1.1-.5-.3A1.081,1.081,0,0,1,10.3,9h0l2.1-3.6A1.081,1.081,0,0,1,14,5h0l3.1,1.8C17.8,7,17.9,7.7,17.6,8.3Zm-7.1,6.3a.54.54,0,0,1-.2-.8h0l2.4-4.2a.583.583,0,1,1,1,.6l-2.4,4.2a.54.54,0,0,1-.8.2ZM10.1,13h0a.54.54,0,0,0-.8.2L7.8,15.8a.524.524,0,0,0,.2.8l2.1,1.2a.54.54,0,0,0,.8-.2L12.4,15a.54.54,0,0,0-.2-.8h0l.6-1.1.5.3a1.081,1.081,0,0,1,.4,1.6h0l-2.1,3.6a1.191,1.191,0,0,1-1.6.5L6.9,17.3a1.17,1.17,0,0,1-.4-1.7h0L8.6,12a1.081,1.081,0,0,1,1.6-.4h0l.5.3Z"/></svg>